<?xml version="1.0"?>
<svg xmlns="http://www.w3.org/2000/svg" height="512px" viewBox="0 0 512 512" width="512px"><path d="m414 136.953125v-64.675781h-15v66.886718l95.402344 316.335938h-375.804688l93.472656-309.941406h94.429688v-15h-92.5v-58.28125h-15v64.675781l-98 324.941406v50.105469h411v-50.105469zm-298 360.046875v-26.5h381v26.5zm0 0" fill="#FFDA44"/><path d="m306.5 289.347656c-2.84375 0-5.59375.394532-8.203125 1.128906l-25.902344-44.855468-6.5 3.761718c-25.027343 14.484376-40.574219 41.425782-40.574219 70.308594v7.5h51.777344c1.398438 5.476563 4.289063 10.363282 8.214844 14.195313l-25.898438 44.855469 6.496094 3.75c12.511719 7.222656 26.546875 10.835937 40.589844 10.835937 14.027344 0 28.0625-3.605469 40.585938-10.820313l6.507812-3.746093-25.90625-44.875c3.925781-3.832031 6.816406-8.71875 8.214844-14.195313h51.777344v-7.5c0-28.882812-15.546876-55.824218-40.574219-70.308594l-6.5-3.761718-25.902344 44.855468c-2.609375-.734374-5.359375-1.128906-8.203125-1.128906zm15.339844 30.339844c0 8.460938-6.878906 15.34375-15.339844 15.34375s-15.339844-6.882812-15.339844-15.34375c0-8.457031 6.878906-15.339844 15.339844-15.339844s15.339844 6.882813 15.339844 15.339844zm-44.742188-7.496094h-36.34375c2.085938-18.164062 11.679688-34.78125 26.375-45.695312l18.183594 31.496094c-3.925781 3.832031-6.816406 8.722656-8.214844 14.199218zm55.78125 68.195313c-16.800781 7.265625-35.984375 7.265625-52.761718-.007813l18.175781-31.476562c2.609375.734375 5.363281 1.128906 8.207031 1.128906s5.59375-.394531 8.207031-1.128906zm12.992188-113.890625c14.695312 10.914062 24.289062 27.53125 26.375 45.695312h-36.34375c-1.398438-5.476562-4.289063-10.367187-8.214844-14.199218zm0 0" fill="#FFDA44"/><path d="m191.3125 319.6875c0 63.515625 51.671875 115.191406 115.1875 115.191406s115.1875-51.675781 115.1875-115.191406c0-63.511719-51.671875-115.1875-115.1875-115.1875s-115.1875 51.675781-115.1875 115.1875zm215.375 0c0 55.246094-44.945312 100.191406-100.1875 100.191406s-100.1875-44.945312-100.1875-100.191406c0-55.242188 44.941406-100.1875 100.1875-100.1875s100.1875 44.945312 100.1875 100.1875zm0 0" fill="#FFDA44"/><path d="m358.703125 373.746094 10.425781 10.789062c12.207032-11.792968 20.8125-26.671875 24.894532-43.027344l-14.554688-3.628906c-3.402344 13.625-10.578125 26.03125-20.765625 35.867188zm0 0" fill="#FFDA44"/><path d="m280.15625 233.425781 4.378906 14.34375c13.433594-4.101562 27.761719-4.332031 41.441406-.664062l3.882813-14.488281c-16.394531-4.394532-33.582031-4.117188-49.703125.808593zm0 0" fill="#FFDA44"/><path d="m233.554688 337.769531-14.558594 3.609375c4.085937 16.476563 12.648437 31.382813 24.757812 43.109375l10.433594-10.773437c-10.085938-9.773438-17.222656-22.203125-20.632812-35.945313zm0 0" fill="#FFDA44"/><path d="m431.667969 0h-250.335938v59.777344h250.332031v-59.777344zm-15 44.777344h-220.335938v-29.777344h220.332031v29.777344zm0 0" fill="#FFDA44"/><path d="m171.097656 181.632812h-100.074218v-16.226562h109.492187v-15h-124.492187v46.226562h115.074218zm0 0" fill="#FFDA44"/><path d="m81.414062 256.453125h64.164063v-15h-62.234375v-32.320313h-15v38.714844l-68.34375 226.605469v37.546875h88.5v-15h-73.5v-13.941406h73.5v-15h-70.902344zm0 0" fill="#FFDA44"/><path d="m102.097656 116.953125 10.605469-10.605469-7.523437-7.523437c-3.171876-3.171875-3.171876-8.328125 0-11.5l36.714843-36.714844c9.015625-9.015625 9.015625-23.6875 0-32.707031l-7.527343-7.523438-10.605469 10.605469 7.523437 7.523437c3.171875 3.167969 3.171875 8.328126 0 11.496094l-36.714844 36.714844c-9.015624 9.019531-9.015624 23.691406 0 32.710938zm0 0" fill="#FFDA44"/><path d="m160.097656 68.8125-36.714844 36.714844c-9.019531 9.019531-9.019531 23.691406 0 32.710937l7.523438 7.523438 10.605469-10.605469-7.523438-7.523438c-3.171875-3.171874-3.171875-8.328124 0-11.496093l36.714844-36.714844c9.015625-9.019531 9.015625-23.691406 0-32.710937l-7.527344-7.523438-10.605469 10.605469 7.527344 7.523437c3.167969 3.167969 3.167969 8.328125 0 11.496094zm0 0" fill="#FFDA44"/><path d="m406.066406 249.179688-32.066406-106.328126v-12.574218h15v10.363281l31.429688 104.210937zm-17.066406-128.902344h-15v-15h15zm0-25h-15v-15h15zm0 0" fill="#FFDA44"/><path d="m486 491.25h-90v-15h90zm-100 0h-15v-15h15zm-25 0h-15v-15h15zm0 0" fill="#FFDA44"/><path d="m407.5 37.027344h-90v-15h90zm-100 0h-15v-15h15zm-25 0h-15v-15h15zm0 0" fill="#FFDA44"/></svg>
